<svg aria-hidden="true" style="position: absolute; width: 0; height: 0; overflow: hidden;" version="1.1" xmlns="http://www.w3.org/2000/svg" xmlns:xlink="http://www.w3.org/1999/xlink">
<defs>
<symbol id="icon-menu" viewBox="0 0 46 32">
<path d="M44.0833 17.8464H1.91667C0.858667 17.8464 0 17.0193 0 16.0002C0 14.9811 0.858667 14.1541 1.91667 14.1541H44.0833C45.1413 14.1541 46 14.9811 46 16.0002C46 17.0193 45.1413 17.8464 44.0833 17.8464ZM44.0833 3.69233H1.91667C0.858667 3.69233 0 2.86524 0 1.84616C0 0.827081 0.858667 0 1.91667 0H44.0833C45.1413 0 46 0.827081 46 1.84616C46 2.86524 45.1413 3.69233 44.0833 3.69233ZM44.0833 32H1.91667C0.858667 32 0 31.1729 0 30.1538C0 29.1348 0.858667 28.3077 1.91667 28.3077H44.0833C45.1413 28.3077 46 29.1348 46 30.1538C46 31.1729 45.1413 32 44.0833 32Z" fill="#1D8DCD"/>
</symbol>
<symbol id="icon-menu-close" viewBox="0 0 40 40">
<path d="M29.6667 12.88L27.7867 11L20.3333 18.4533L12.88 11L11 12.88L18.4533 20.3333L11 27.7867L12.88 29.6667L20.3333 22.2133L27.7867 29.6667L29.6667 27.7867L22.2133 20.3333L29.6667 12.88Z"></path>
</symbol>
</defs>
</svg>
