<svg aria-hidden="true" style="position: absolute; width: 0; height: 0; overflow: hidden;" version="1.1" xmlns="http://www.w3.org/2000/svg" xmlns:xlink="http://www.w3.org/1999/xlink">
<defs>
<symbol id="icon-menu" viewBox="0 0 46 32">
<path d="M44.0833 17.8464H1.91667C0.858667 17.8464 0 17.0193 0 16.0002C0 14.9811 0.858667 14.1541 1.91667 14.1541H44.0833C45.1413 14.1541 46 14.9811 46 16.0002C46 17.0193 45.1413 17.8464 44.0833 17.8464ZM44.0833 3.69233H1.91667C0.858667 3.69233 0 2.86524 0 1.84616C0 0.827081 0.858667 0 1.91667 0H44.0833C45.1413 0 46 0.827081 46 1.84616C46 2.86524 45.1413 3.69233 44.0833 3.69233ZM44.0833 32H1.91667C0.858667 32 0 31.1729 0 30.1538C0 29.1348 0.858667 28.3077 1.91667 28.3077H44.0833C45.1413 28.3077 46 29.1348 46 30.1538C46 31.1729 45.1413 32 44.0833 32Z" fill="#1D8DCD"/>
</symbol>
<symbol id="icon-menu-close" viewBox="0 0 24 24">
<path id="Vector" d="M21 21L12 12M12 12L3 3M12 12L21.0001 3M12 12L3 21.0001" stroke="#1D8DCD" stroke-width="2" stroke-linecap="round" stroke-linejoin="round"/>
</symbol>
</defs>
</svg>
