<svg aria-hidden="true" style="position: absolute; width: 0; height: 0; overflow: hidden;" version="1.1" xmlns="http://www.w3.org/2000/svg" xmlns:xlink="http://www.w3.org/1999/xlink">
<defs>
<symbol id="icon-menu" viewBox="0 0 46 32">
<path d="M44.0833 17.8464H1.91667C0.858667 17.8464 0 17.0193 0 16.0002C0 14.9811 0.858667 14.1541 1.91667 14.1541H44.0833C45.1413 14.1541 46 14.9811 46 16.0002C46 17.0193 45.1413 17.8464 44.0833 17.8464ZM44.0833 3.69233H1.91667C0.858667 3.69233 0 2.86524 0 1.84616C0 0.827081 0.858667 0 1.91667 0H44.0833C45.1413 0 46 0.827081 46 1.84616C46 2.86524 45.1413 3.69233 44.0833 3.69233ZM44.0833 32H1.91667C0.858667 32 0 31.1729 0 30.1538C0 29.1348 0.858667 28.3077 1.91667 28.3077H44.0833C45.1413 28.3077 46 29.1348 46 30.1538C46 31.1729 45.1413 32 44.0833 32Z" fill="#1D8DCD"/>
</symbol>
<symbol id="icon-menu-close" viewBox="0 0 24 24">
<path id="Vector" d="M21 21L12 12M12 12L3 3M12 12L21.0001 3M12 12L3 21.0001" stroke="#1D8DCD" stroke-width="2" stroke-linecap="round" stroke-linejoin="round"/>
</symbol>
<symbol id="icon-huawei" viewBox="0 0 135 30">
<path fill="#262729" d="M49.5347 9.8h-3.1v14.8h3.1v-6h6.8v6h3V9.8h-3v6h-6.8zm23.8 8.5c0 2.4-1.2 3.7-3.4 3.7s-3.4-1.3-3.4-3.8V9.8h-3v8.5c0 4.2 2.3 6.6 6.4 6.6 4.1 0 6.4-2.4 6.4-6.7V9.8h-3zm29-8.5l-3.4 10.2-3.3-10.2h-3.2l5.2 14.8h2.5l3.4-9.7 3.3 9.7h2.6l5.1-14.8h-3.1l-3.3 10.2-3.4-10.2zm23.1 5.7h-5.5v-3h8V9.8h-11v14.8h11.3v-2.7h-8.3v-3.7h5.5zm6.4-5.7h3v14.8h-3zm-42.8 11.7l1.3 3.1h3.2l-6.5-14.8-.1-.1h-2.6l-6.5 14.9h3.1l1.3-2.9.1-.2zm-3.4-8l2.1 5 .1.3h-4.6l.1-.3z"/><path d="M16.8347 23.1s.1-.1 0-.1c-4.6-10-10.9-17.7-10.9-17.7s-3.4 3.2-3.2 6.5c.1 2.5 2 3.9 2 3.9 3 2.9 10.2 6.6 11.9 7.4h.2m-1.2 2.5c0-.1-.2-.1-.2-.1l-12 .4c1.3 2.3 3.5 4.1 5.8 3.6 1.6-.4 5.2-2.9 6.3-3.7.2-.2.1-.2.1-.2m.2-1.1c.1-.1 0-.2 0-.2-5.3-3.6-15.5-9-15.5-9-.9 2.9.3 5.2.3 5.2 1.3 2.8 3.8 3.6 3.8 3.6 1.1.5 2.3.5 2.3.5h9c.1 0 .1-.1.1-.1m.8-24.4c-.5 0-1.9.4-1.9.4-3.2.8-3.9 3.7-3.9 3.7-.6 1.8 0 3.8 0 3.8 1.1 4.7 6.3 12.5 7.4 14.1l.1.1c.1 0 .1-.1.1-.1 1.8-17.5-1.8-22-1.8-22m4 22c.1 0 .2-.1.2-.1 1.2-1.7 6.3-9.4 7.4-14.1 0 0 .6-2.3 0-3.8 0 0-.8-2.9-4-3.7 0 0-.9-.2-1.9-.4 0 0-3.6 4.6-1.8 21.9 0 .2.1.2.1.2m2.8 3.4s-.1 0-.1.1v.2c1.2.8 4.6 3.3 6.3 3.7 0 0 3.1 1.1 5.8-3.6zm15.3-10.3s-10.2 5.5-15.5 9.1c0 0-.1.1-.1.2 0 0 0 .1.1.1h9.2s.9 0 2.1-.5c0 0 2.5-.8 3.9-3.7 0-.1 1.2-2.4.3-5.2m-16.5 7.9s.1.1.2 0c1.7-.9 8.9-4.5 11.9-7.4 0 0 1.9-1.5 2-3.9.2-3.4-3.2-6.5-3.2-6.5s-6.3 7.5-10.9 17.6c0 0-.1.1 0 .2" fill="#CF0A2C"/>
</symbol>
<symbol id="icon-facebook" viewBox="0 0 52 52">
<path fill-rule="evenodd" clip-rule="evenodd" d="M0 26C0 11.6406 11.6406 0 26 0C40.3594 0 52 11.6406 52 26C52 40.3594 40.3594 52 26 52C11.6406 52 0 40.3594 0 26ZM26 13C33.15 13 39 18.85 39 26C39 32.5 34.2875 38.025 27.7875 39V29.7375H30.875L31.525 26H27.95V23.5625C27.95 22.5875 28.4375 21.6125 30.0625 21.6125H31.6875V18.3625C31.6875 18.3625 30.225 18.0375 28.7625 18.0375C25.8375 18.0375 23.8875 19.825 23.8875 23.075V26H20.6375V29.7375H23.8875V38.8375C17.7125 37.8625 13 32.5 13 26C13 18.85 18.85 13 26 13Z" fill="#1D8DCD"/>
</symbol>
<symbol id="icon-instagram" viewBox="0 0 52 52">
<path d="M26.25 30.55C23.8125 30.55 21.7 28.6 21.7 26C21.7 23.5625 23.65 21.45 26.25 21.45C28.6875 21.45 30.8 23.4 30.8 26C30.8 28.4375 28.6875 30.55 26.25 30.55Z" fill="#1D8DCD"/>
<path fill-rule="evenodd" clip-rule="evenodd" d="M31.775 14.95H20.725C19.425 15.1125 18.775 15.275 18.2875 15.4375C17.6375 15.6 17.15 15.925 16.6625 16.4125C16.2767 16.7983 16.0945 17.184 15.8742 17.6503C15.8161 17.7731 15.7553 17.902 15.6875 18.0375C15.6624 18.1129 15.6333 18.1922 15.6022 18.2772C15.4322 18.7417 15.2 19.3761 15.2 20.475V31.525C15.3625 32.825 15.525 33.475 15.6875 33.9625C15.85 34.6125 16.175 35.1 16.6625 35.5875C17.0483 35.9733 17.434 36.1555 17.9003 36.3758C18.0233 36.4339 18.1518 36.4947 18.2875 36.5625C18.3629 36.5876 18.4422 36.6167 18.5272 36.6478C18.9917 36.8178 19.6261 37.05 20.725 37.05H31.775C33.075 36.8875 33.725 36.725 34.2125 36.5625C34.8625 36.4 35.35 36.075 35.8375 35.5875C36.2233 35.2017 36.4055 34.816 36.6258 34.3497C36.6839 34.2268 36.7447 34.0981 36.8125 33.9625C36.8376 33.8871 36.8667 33.8078 36.8978 33.7228C37.0678 33.2583 37.3 32.6239 37.3 31.525V20.475C37.1375 19.175 36.975 18.525 36.8125 18.0375C36.65 17.3875 36.325 16.9 35.8375 16.4125C35.4517 16.0267 35.066 15.8445 34.5997 15.6242C34.4769 15.5662 34.3479 15.5052 34.2125 15.4375C34.1371 15.4124 34.0578 15.3833 33.9728 15.3522C33.5083 15.1822 32.8739 14.95 31.775 14.95ZM26.25 19.0125C22.35 19.0125 19.2625 22.1 19.2625 26C19.2625 29.9 22.35 32.9875 26.25 32.9875C30.15 32.9875 33.2375 29.9 33.2375 26C33.2375 22.1 30.15 19.0125 26.25 19.0125ZM35.025 18.85C35.025 19.7475 34.2975 20.475 33.4 20.475C32.5025 20.475 31.775 19.7475 31.775 18.85C31.775 17.9525 32.5025 17.225 33.4 17.225C34.2975 17.225 35.025 17.9525 35.025 18.85Z" fill="#1D8DCD"/>
<path fill-rule="evenodd" clip-rule="evenodd" d="M0.25 26C0.25 11.6406 11.8906 0 26.25 0C40.6094 0 52.25 11.6406 52.25 26C52.25 40.3594 40.6094 52 26.25 52C11.8906 52 0.25 40.3594 0.25 26ZM20.725 12.5125H31.775C33.2375 12.675 34.2125 12.8375 35.025 13.1625C36 13.65 36.65 13.975 37.4625 14.7875C38.275 15.6 38.7625 16.4125 39.0875 17.225C39.4125 18.0375 39.7375 19.0125 39.7375 20.475V31.525C39.575 32.9875 39.4125 33.9625 39.0875 34.775C38.6 35.75 38.275 36.4 37.4625 37.2125C36.65 38.025 35.8375 38.5125 35.025 38.8375C34.2125 39.1625 33.2375 39.4875 31.775 39.4875H20.725C19.2625 39.325 18.2875 39.1625 17.475 38.8375C16.5 38.35 15.85 38.025 15.0375 37.2125C14.225 36.4 13.7375 35.5875 13.4125 34.775C13.0875 33.9625 12.7625 32.9875 12.7625 31.525V20.475C12.925 19.0125 13.0875 18.0375 13.4125 17.225C13.9 16.25 14.225 15.6 15.0375 14.7875C15.85 13.975 16.6625 13.4875 17.475 13.1625C18.2875 12.8375 19.2625 12.5125 20.725 12.5125Z" fill="#1D8DCD"/>
</symbol>

  <symbol xmlnsDc="http://purl.org/dc/elements/1.1/" xmlnsCc="http://creativecommons.org/ns#" xmlnsRdf="http://www.w3.org/1999/02/22-rdf-syntax-ns#" xmlnsSvg="http://www.w3.org/2000/svg" xmlns="http://www.w3.org/2000/svg" xmlnsSodipodi="http://sodipodi.sourceforge.net/DTD/sodipodi-0.dtd" xmlnsInkscape="http://www.inkscape.org/namespaces/inkscape" version="1.1" id="alcatel" inkscapeVersion="0.48.5 r10040" sodipodiDocname="alcatel-logo.svg" viewBox="0 0 322.44142 81.480471">
    <metadata id="metadata25">
      <rdf:RDF>
        <cc:Work rdfAbout="">
          <dc:format>image/svg+xml</dc:format>
          <dc:type rdfResource="http://purl.org/dc/dcmitype/StillImage"></dc:type>
        </cc:Work>
      </rdf:RDF>
    </metadata>
    <defs id="defs23"></defs>
    <sodipodi:namedview pagecolor="#ffffff" bordercolor="#666666" borderopacity="1" objecttolerance="10" gridtolerance="10" guidetolerance="10" inkscapePageopacity="0" inkscapePageshadow="2" inkscapeWindowWidth="1366" inkscapeWindowHeight="706" id="namedview21" showgrid="false" fitMarginTop="0" fitMarginLeft="0" fitMarginRight="0" fitMarginBottom="0" inkscapeZoom="0.69748686" inkscapeCx="239.28185" inkscapeCy="1.9490238" inkscapeWindowX="-8" inkscapeWindowY="-8" inkscapeWindowMaximized="1" inkscapeCurrentLayer="svg2"></sodipodi:namedview>
    <g id="surface1" transform="translate(-229.51953,-217.71875)">
      <path d="m 433.39844,286 -8.75782,0 0,-6.83984 C 419.83984,283.35937 413.71875,286 406.87891,286 c -14.64063,0 -26.51954,-11.87891 -26.51954,-26.51953 0,-14.64063 11.87891,-26.51953 26.51954,-26.51953 14.64062,0 26.51953,11.8789 26.51953,26.51953 z M 407,223.71875 c -19.44141,0 -35.16016,15.83984 -35.16016,35.16016 0,19.4414 15.71875,35.16015 35.16016,35.16015 5.28125,0 10.32031,-1.19922 14.76172,-3.23828 l 2.39844,0.96094 17.8789,7.4375 0,-40.32031 c 0,-19.32032 -15.71875,-35.16016 -35.03906,-35.16016" id="path5" inkscapeConnectorCurvature="0"></path>
      <path d="m 260.59766,280 c -11.39844,0 -20.63672,-9.35938 -20.63672,-20.75781 0,-11.40235 9.23828,-20.76172 20.63672,-20.76172 11.52343,0 20.76171,9.35937 20.76171,20.76172 0,11.39843 -9.23828,20.75781 -20.76171,20.75781 m 0,-51.83984 c -17.15625,0 -31.07813,13.92187 -31.07813,31.08203 0,17.16015 13.92188,31.07812 31.07813,31.07812 8.04296,0 15.24218,-3 20.76171,-7.91797 l 0,7.91797 10.44141,0 0,-31.07812 c 0,-17.16016 -13.92187,-31.08203 -31.20312,-31.08203" id="path7" inkscapeConnectorCurvature="0"></path>
      <path d="m 300.07812,290.32031 10.32032,0 0,-72.60156 -10.32032,0 z m 0,0" id="path9" inkscapeConnectorCurvature="0"></path>
      <path d="m 541.64062,290.32031 10.32032,0 0,-72.60156 -10.32032,0 z m 0,0" id="path11" inkscapeConnectorCurvature="0"></path>
      <path d="m 349.76172,280 c -11.40235,0 -20.64063,-9.35938 -20.64063,-20.75781 0,-11.40235 9.23828,-20.76172 20.64063,-20.76172 5.75781,0 10.91797,2.39844 14.75781,6.12109 l 7.32031,-7.32031 c -5.64062,-5.64063 -13.4414,-9.12109 -22.07812,-9.12109 -17.16016,0 -31.08203,13.92187 -31.08203,31.08203 0,17.16015 13.92187,31.07812 31.08203,31.07812 8.63672,0 16.4375,-3.48047 22.07812,-9.12109 l -7.32031,-7.32031 c -3.83984,3.72265 -9,6.12109 -14.75781,6.12109" id="path13" inkscapeConnectorCurvature="0"></path>
      <path d="m 460.76172,228.16016 0,-10.44141 -10.32031,0 0,72.60156 10.32031,0 0,-51.83984 10.3164,0 0,-10.32031" id="path15" inkscapeConnectorCurvature="0"></path>
      <path d="m 502.16016,238.48047 c 9.71875,0 17.76171,6.60156 20.16015,15.60156 l -40.19922,0 c 2.39844,-9 10.4375,-15.60156 20.03907,-15.60156 m 15.71875,34.19922 C 514.16016,277.12109 508.51953,280 502.16016,280 c -9.60157,0 -17.64063,-6.59766 -20.03907,-15.59766 l 50.75782,0 c 0.24218,-1.68359 0.48046,-3.36328 0.48046,-5.16015 0,-17.16016 -13.91796,-31.08203 -31.19921,-31.08203 -17.16016,0 -31.08204,13.92187 -31.08204,31.08203 0,17.16015 13.92188,31.07812 31.08204,31.07812 12.35937,0 23.03906,-7.19922 28.07812,-17.64062" id="path17" inkscapeConnectorCurvature="0"></path>
      <path d="m 406.87891,241.48047 c -9.95704,0 -18,8.03906 -18,18 0,9.96094 8.04296,18 18,18 9.96093,0 18,-8.03906 18,-18 0,-9.96094 -8.03907,-18 -18,-18" id="path19" inkscapeConnectorCurvature="0"></path>
    </g>
  </symbol>
  <symbol version="1.2" xmlns="http://www.w3.org/2000/svg" viewBox="0 0 1525 414" id="inseego">
    <title>inseego-logo</title>
    <path id="Layer" fill-rule="evenodd" d="m1052.8 292.1c-11.3-10.9-20.2-24.1-26.1-38.7-6-14.6-9-30.2-8.7-46.1-0.2-15.9 2.8-31.8 8.7-46.6 6-14.7 14.9-28.1 26.1-39.3 19.4-20 45.1-32.5 72.6-35.4 27.5-2.8 55.2 4.1 78.2 19.7 1.4-5.8 4.7-11 9.5-14.5 5.1-3.9 11.3-5.9 17.6-5.8 3.3 0 6.6 0.6 9.7 1.9 3 1.3 5.8 3.2 8.2 5.6 2.4 2.3 4.4 5.1 5.7 8.2 1.3 3.1 2 6.5 1.9 9.9v186.4c0.2 15.4-2.8 30.6-8.8 44.7-6.1 14.1-14.9 26.8-26.1 37.1-11.1 11.1-24.3 19.8-38.7 25.6-14.4 5.9-29.9 8.8-45.4 8.5-18.1 0.2-35.9-4-52.1-12.1-3.2-1.3-6-3.3-8.3-5.8-2.3-2.6-4.1-5.6-5.1-8.9-1.2-3.3-1.6-6.7-1.4-10.2 0.3-3.5 1.2-6.8 2.9-9.9 1.5-3 3.7-5.7 6.3-8 2.6-2.2 5.6-3.8 8.8-4.8 6.8-2.3 14.1-1.9 20.6 0.9 10.1 4.9 21.3 7.2 32.5 6.8 13.9-0.3 27.2-5.5 37.7-14.7 11.7-9.2 19.9-22.3 23.1-37-19.3 12.9-41.9 19.7-65 19.3-15.8 0.3-31.5-2.9-46-9.2-14.6-6.3-27.6-15.7-38.4-27.5m18.6-84.6c-0.1 9 1.4 17.9 4.7 26.3 3.3 8.4 8.1 16 14.3 22.4 5.9 6.6 13.2 11.8 21.3 15.3 8 3.5 16.8 5.3 25.6 5 8.7 0.3 17.4-1.4 25.5-4.8 8-3.4 15.3-8.5 21.3-14.9 6.3-6.5 11.2-14.3 14.4-22.7 3.3-8.5 4.8-17.5 4.6-26.6 0.2-9.2-1.3-18.4-4.6-26.9-3.2-8.6-8.1-16.4-14.4-23.1-5.9-6.5-13.1-11.7-21.2-15.2-8-3.6-16.6-5.4-25.4-5.3-8.7 0-17.4 1.9-25.4 5.5-7.9 3.6-15.1 8.9-21 15.5-12.6 13.2-19.6 31-19.4 49.5z"></path>
    <path id="Layer" fill-rule="evenodd" d="m1407.4 328.3c-15.8 0.3-31.5-2.7-46.1-8.8-14.6-6.2-27.8-15.3-38.8-26.9-11.2-11.1-20-24.4-26-39.1-6-14.7-9-30.5-8.8-46.4-0.1-15.9 2.9-31.8 8.9-46.5 6-14.7 14.9-28.1 26.1-39.2 10.8-11.6 23.9-20.7 38.4-26.9 14.4-6.2 30-9.3 45.7-9.1 15.7-0.2 31.2 2.9 45.7 9.2 14.4 6.3 27.3 15.7 38 27.4 11.1 11.4 19.9 24.9 25.8 39.8 5.9 14.9 8.9 30.8 8.7 46.8q0 50.3-34.8 83.1c-21.8 24.5-49.4 36.7-82.8 36.6zm-47.7-171.8c-12 13.8-18.4 31.7-17.8 50.1-0.5 18.8 5.8 37 17.8 51.3 12.9 11.5 29.5 17.9 46.6 17.9 17.2 0 33.8-6.4 46.7-17.9 12.8-13.9 19.7-32.3 19.4-51.3 0.2-9.3-1.4-18.5-4.7-27.1-3.3-8.6-8.3-16.5-14.7-23.1-12.8-11.8-29.4-18.3-46.6-18.3-17.3 0-33.9 6.5-46.7 18.3z"></path>
    <path id="Layer" fill-rule="evenodd" d="m809.4 299.4q-28.2-30.3-28.2-92.7 0.1-58.3 27.3-90.1 27.1-31.8 76-31.8c11.8-0.2 23.5 1.4 34.8 4.8 9.3 2.7 18 7.2 25.7 13.3 6.5 5.4 12.3 11.6 17.3 18.4 4.8 6.6 8.5 13.9 10.9 21.7q3.4 10.5 5.2 21.5c1.1 6.4 1.6 12.9 1.6 19.5q0 7.4-0.3 11.6-0.6 4.9-2.1 9.6c-0.9 3.5-3.1 6.5-6.1 8.5-3.5 1.9-7.5 2.9-11.5 2.7h-146.2q0 38.1 20.2 60.6 20.2 22.5 55.3 22.5c11.4 0.3 22.7-1.7 33.3-5.8 9.6-4.2 18.6-9.6 26.9-16.1 2.6-1.9 5.8-3.1 9-3.2 1.9-0.1 3.8 0.3 5.6 1.1 1.8 0.7 3.4 1.8 4.7 3.2 1.3 1.4 2.4 3.1 3.1 4.9 0.7 1.8 1.1 3.7 1 5.7 0 2.2-0.5 4.4-1.5 6.4-0.9 2-2.2 3.8-3.8 5.3-4.2 4.1-8.8 7.8-13.7 11.1-8.3 4.9-17.1 8.8-26.3 11.5-12.4 4.1-25.3 6.1-38.3 6q-51.5 0-79.8-30.2zm24.9-165.8q-18.2 19.6-20.4 54.2h134.7c0-9.1-0.9-18.2-3-27.1-2-8.3-5.3-16.1-9.8-23.3-4.8-7.6-11.7-13.6-19.8-17.3-10-4.4-20.8-6.5-31.6-6.2q-32 0.1-50.3 19.7zm-257.9 165.8q-28.3-30.3-28.3-92.7 0-58.5 27.2-90.3 27.1-31.8 76-31.8c11.8-0.2 23.5 1.5 34.8 4.8 9.3 2.7 18 7.3 25.6 13.3 6.5 5.5 12.4 11.7 17.4 18.6 4.8 6.6 8.4 13.9 10.9 21.7q3.4 10.5 5.3 21.5 1.5 9.7 1.5 19.5 0 7.4-0.3 11.6-0.6 4.9-2.1 9.6c-0.9 3.5-3.1 6.5-6.1 8.5-3.5 1.9-7.5 2.9-11.5 2.7h-146.2q0 38.1 20.2 60.6 20.1 22.5 55.4 22.5c11.3 0.3 22.6-1.7 33.2-5.8 9.6-4.2 18.6-9.6 26.9-16.1 2.6-1.9 5.7-3.1 9-3.2 1.9-0.1 3.8 0.3 5.6 1.1 1.8 0.7 3.4 1.8 4.7 3.2 1.3 1.4 2.4 3.1 3.1 4.9 0.7 1.8 1.1 3.7 1 5.7 0 2.2-0.5 4.4-1.5 6.4-0.9 2-2.2 3.8-3.8 5.3-4.2 4.1-8.8 7.8-13.7 11.1-8.3 4.9-17.1 8.8-26.3 11.5-12.4 4.1-25.3 6.1-38.2 6q-51.6 0-79.9-30.2zm24.7-165.8q-18.2 19.6-20.4 54.2h134.7c0.1-9.1-0.9-18.2-3-27.1-2-8.2-5.2-16.1-9.6-23.3-4.8-7.6-11.7-13.6-19.8-17.3-10-4.4-20.8-6.5-31.6-6.2q-32.1 0.1-50.3 19.7zm-262.5 158.6c-2.1-2.7-3.3-6.1-3.5-9.6 0-1.9 0.4-3.9 1.1-5.7 0.7-1.8 1.7-3.4 3.1-4.8 1.3-1.3 2.9-2.4 4.7-3.1 1.8-0.8 3.7-1.1 5.6-1.1 2 0 4.1 0.5 6 1.3 1.9 0.9 3.6 2.1 5 3.7q24.6 25.1 63.5 25.1 23.5 0 38.3-8.8c4.7-2.7 8.6-6.8 11.2-11.6 2.6-4.9 3.8-10.4 3.5-15.9 0.1-6-1.9-11.9-5.6-16.6-4-5-9.2-9-15-11.7q-10.3-4.9-21.1-8.6l-24.1-8.5q-12.4-4.4-24.1-10.4c-7.4-3.7-14.5-8.2-21-13.3-6.4-5.2-11.5-11.8-15-19.3-3.8-8.4-5.7-17.5-5.6-26.8q-0.1-30.3 21.4-45.9 21.4-15.5 55.1-15.5 52 0 75.9 32.6c2.2 2.7 3.5 6.1 3.7 9.6 0 2-0.3 3.9-1.1 5.7-0.7 1.8-1.8 3.4-3.2 4.8-2.8 2.7-6.6 4.3-10.5 4.2-3.9 0-7.7-1.7-10.4-4.5-6.8-6.8-14.8-12.2-23.6-16.1-9.8-3.8-20.4-5.6-30.9-5.3-11.1-0.5-22.1 2-31.9 7.2-8.5 4.8-12.7 12.6-12.7 23.6 0 6.2 1.9 12.3 5.6 17.2 3.9 5.3 9 9.5 14.9 12.5q10.3 5.2 21.2 9l24 8.7q12.4 4.5 24.1 10.4c7.5 3.7 14.6 8 21.3 12.9 6.4 4.8 11.5 11.1 15 18.3 3.9 8 5.8 16.9 5.7 25.8 0.4 13.6-3.7 26.9-11.5 37.9-7.7 10.4-18.3 18.3-30.3 22.5-13.9 4.9-28.6 7.2-43.3 7-17.7 0.3-35.3-3.5-51.4-11.1q-22.9-11.3-34.2-25.7zm-237.3 24.7c-0.8-2-1.1-4.1-1.1-6.3v-206.9c0-2.2 0.4-4.3 1.2-6.3 0.8-2 2-3.8 3.5-5.3 1.5-1.5 3.4-2.7 5.4-3.5 2-0.8 4.1-1.1 6.3-1 2.1-0.1 4.1 0.3 6.1 1.1 1.9 0.8 3.7 2 5.2 3.5 1.4 1.5 2.6 3.3 3.4 5.3 0.7 1.9 1.1 4 1.1 6.2v16.4c5.6-11 14.5-19.9 25.3-25.5 12.7-6.9 26.9-10.3 41.3-9.9 13.1-0.3 26.3 1.5 38.9 5.3 9.7 2.8 18.7 7.4 26.5 13.7 6.7 5.7 12.2 12.7 16.1 20.6 3.8 7.6 6.6 15.7 8.1 24.1 1.5 8.7 2.2 17.4 2.1 26.1v136.2c0.1 2.1-0.3 4.2-1.1 6.2-0.8 2-1.9 3.8-3.4 5.3-1.5 1.5-3.3 2.7-5.2 3.5-1.9 0.8-4 1.1-6.1 1.1-2.1 0-4.2-0.3-6.2-1.1-2-0.8-3.8-2-5.3-3.5-1.5-1.5-2.7-3.3-3.5-5.3-0.8-2-1.2-4.1-1.2-6.3v-129.3c0.2-9.3-0.7-18.6-2.5-27.8-1.7-7.5-4.7-14.7-9.1-21.1-4.5-6.6-10.9-11.6-18.4-14.3-9.6-3.4-19.7-5-29.8-4.8q-66.7 0.1-66.7 71.4v126c0 2.1-0.4 4.2-1.2 6.2-0.7 2-1.9 3.8-3.4 5.3-1.4 1.5-3.2 2.7-5.1 3.5-2 0.8-4.1 1.1-6.2 1.1-2.1 0-4.2-0.3-6.1-1.1-2-0.8-3.8-2-5.3-3.5-1.6-1.5-2.8-3.3-3.6-5.3zm-93.5 5.4c-1.5-1.5-2.7-3.3-3.5-5.3-0.8-2-1.2-4.1-1.1-6.3v-206.9c-0.1-2.2 0.3-4.3 1.1-6.3 0.8-2 2-3.8 3.5-5.3 1.5-1.5 3.3-2.7 5.3-3.5 2-0.8 4.1-1.2 6.2-1.1 2.1-0.1 4.2 0.3 6.1 1.1 2 0.8 3.7 2 5.2 3.5 1.5 1.5 2.6 3.3 3.4 5.3 0.8 1.9 1.2 4 1.1 6.2v207c0.1 2.1-0.3 4.2-1.1 6.2-0.8 2-1.9 3.8-3.4 5.3-1.5 1.5-3.2 2.7-5.2 3.5-1.9 0.8-4 1.1-6.1 1.1-2.1 0-4.2-0.3-6.2-1.1-2-0.8-3.8-2-5.3-3.5zm-6.4-294.4c-0.8-2.5-1.2-5.1-1-7.7q0.1-20.2 18.9-20.2 18.8 0 18.8 20.2c0.2 2.6-0.2 5.2-1 7.6-0.8 2.5-2.2 4.8-3.9 6.7-1.8 1.8-4 3.1-6.4 4-2.4 0.9-4.9 1.2-7.5 1.1-2.5 0.1-5.1-0.2-7.5-1.1-2.4-0.9-4.7-2.2-6.5-4-1.7-1.9-3-4.2-3.9-6.6z"></path>
    <path id="Layer" fill-rule="evenodd" d="m1525 325.9c0.1 2.8-0.7 5.7-2.2 8.1-1.5 2.4-3.7 4.3-6.3 5.5-2.6 1.2-5.5 1.5-8.3 1-2.7-0.5-5.3-1.9-7.3-3.9-2-2-3.4-4.6-4-7.4-0.6-2.8-0.3-5.7 0.8-8.4 1-2.7 2.9-4.9 5.2-6.5 2.4-1.6 5.1-2.5 7.9-2.5 1.9 0 3.7 0.3 5.4 1 1.7 0.7 3.3 1.7 4.6 3 1.3 1.3 2.4 2.9 3.1 4.6 0.7 1.7 1.1 3.6 1.1 5.5zm-24.8 0.1q0-0.1 0-0.1 0 0 0 0zm0.7 4.1c0.5 1.4 1.3 2.6 2.3 3.7 1 1 2.2 1.9 3.5 2.4 1.4 0.6 2.8 0.9 4.2 0.9 1.4 0 2.8-0.3 4.1-0.9 1.3-0.6 2.5-1.4 3.5-2.4 1-1.1 1.7-2.3 2.2-3.6 0.6-1.4 0.8-2.8 0.7-4.2 0.1-1.5-0.1-3-0.6-4.4-0.5-1.4-1.3-2.6-2.3-3.7-1-1.1-2.2-1.9-3.5-2.5-1.3-0.6-2.7-0.9-4.2-0.9-1.4 0-2.9 0.3-4.2 0.9-1.3 0.6-2.5 1.4-3.5 2.5-1 1.1-1.8 2.3-2.3 3.7-0.5 1.4-0.7 2.9-0.6 4.3-0.1 1.5 0.2 2.9 0.7 4.2zm7.8 3.1h-3.2v-14q2.6-0.5 5.3-0.4c1.7-0.2 3.3 0.2 4.8 1q0.7 0.6 1 1.4 0.4 0.9 0.3 1.8c0 0.8-0.4 1.5-0.9 2.1-0.5 0.6-1.2 1-1.9 1.1 0.7 0.3 1.3 0.8 1.7 1.4 0.5 0.6 0.7 1.3 0.8 2.1q0.2 1.8 1 3.5h-3.5q-0.7-1.7-1-3.5c-0.3-1.5-1.1-2.2-2.9-2.2h-1.5zm0-8h1.5c1.8 0 3.2-0.6 3.2-2 0-1.5-0.9-2.2-3-2.2q-0.8 0-1.7 0z"></path>
  </symbol>
  <symbol xmlnsDc="http://purl.org/dc/elements/1.1/" xmlnsCc="http://creativecommons.org/ns#" xmlnsRdf="http://www.w3.org/1999/02/22-rdf-syntax-ns#" xmlnsSvg="http://www.w3.org/2000/svg" xmlns="http://www.w3.org/2000/svg" xmlnsSodipodi="http://sodipodi.sourceforge.net/DTD/sodipodi-0.dtd" xmlnsInkscape="http://www.inkscape.org/namespaces/inkscape" id="netgear" version="1.1" inkscapeVersion="0.48.2 r9819" sodipodiDocname="Netgear_2014.svg" viewBox="0 0 200 29.76285">
    <defs id="defs4"></defs>
    <sodipodi:namedview id="base" pagecolor="#ffffff" bordercolor="#666666" borderopacity="1.0" inkscapePageopacity="0.0" inkscapePageshadow="2" inkscapeZoom="0.35399533" inkscapeCx="1450.8316" inkscapeCy="-694.33125" inkscapeDocumentUnits="px" inkscapeCurrentLayer="layer1" showgrid="false" fitMarginLeft="0.5" fitMarginBottom="0.5" fitMarginTop="0.5" fitMarginRight="0.5" inkscapeWindowWidth="1920" inkscapeWindowHeight="1028" inkscapeWindowX="-8" inkscapeWindowY="-8" inkscapeWindowMaximized="1">
      <inkscape:grid type="xygrid" id="grid2996" empspacing="5" visible="true" enabled="true" snapvisiblegridlinesonly="true"></inkscape:grid>
    </sodipodi:namedview>
    <metadata id="metadata7">
      <rdf:RDF>
        <cc:Work rdfAbout="">
          <dc:format>image/svg+xml</dc:format>
          <dc:type rdfResource="http://purl.org/dc/dcmitype/StillImage"></dc:type>
          <dc:title></dc:title>
        </cc:Work>
      </rdf:RDF>
    </metadata>
    <g inkscapeLabel="Layer 1" inkscapeGroupmode="layer" id="layer1" transform="translate(73.5,-513.23666)">
      <path d="m -73,541.69783 0,-27.12756 7.363194,0 12.401168,16.66407 0,-16.66407 7.363194,0 0,27.12756 -7.363194,0 -12.401168,-16.78503 0,16.78503 z" id="path2998" inkscapeConnectorCurvature="0" sodipodiNodetypes="ccccccccccc"></path>
      <path d="m -37.152873,541.69783 0,-27.12756 18.020448,0 0,6.00682 -10.657253,0 0,4.55355 10.269717,0 0,5.90993 -10.269717,0 0,4.65044 10.657253,0 0,6.00682 z" id="path3000" inkscapeConnectorCurvature="0" sodipodiNodetypes="ccccccccccccc"></path>
      <path d="m 0.63193821,541.69783 -7.55696221,0 0,-21.12074 -7.169426,0 0,-6.00682 21.8958124,0 0,6.00682 -7.16942419,0 z" id="path3004" inkscapeConnectorCurvature="0"></path>
      <path d="m 25.724928,526.5839 14.532498,0 c 0,10.39716 -5.466959,15.91561 -14.347803,15.91561 -8.595013,0 -15.046672,-5.24934 -15.046672,-14.05485 0,-9.08762 5.853111,-14.708 14.877337,-14.708 10.202214,0 12.990457,7.59591 12.990457,7.59591 l -6.991141,2.78194 c 0,0 -1.637692,-4.28178 -6.241223,-4.28178 -3.370395,0 -6.94276,2.54397 -6.94276,8.49098 0,4.97927 3.194359,8.41839 7.305623,8.41839 3.677012,0 5.490145,-2.10072 5.773615,-4.73269 l -5.909931,0 z" id="path3006" inkscapeConnectorCurvature="0" sodipodiNodetypes="ccccccccccccc"></path>
      <path d="m 79.108082,514.57275 -9.930624,27.12756 7.605404,0 1.695474,-5.03797 9.833737,0 1.695472,5.03797 7.653847,0 -10.027506,-27.12756 -8.525804,0 z m 4.262901,7.0241 3.245618,9.73686 -6.418572,0 3.172954,-9.73686 z" id="path3008" inkscapeConnectorCurvature="0"></path>
      <path d="m 102.16651,514.57275 0,27.12756 7.36319,0 0,-10.46348 0.5813,0 6.78189,10.46348 9.10711,0 -8.55002,-11.15378 c 2.95322,-0.46479 6.18847,-2.72092 6.18847,-7.56908 0,-4.76223 -3.00035,-8.4047 -10.30605,-8.4047 l -11.16589,0 z m 7.36319,5.42552 1.93768,0 c 3.81388,0 4.74732,1.39107 4.74732,3.39094 0,2.40742 -1.53885,3.39095 -4.74732,3.39095 l -1.93768,0 0,-6.78189 z" id="path3012" inkscapeConnectorCurvature="0"></path>
      <path sodipodiNodetypes="ccccccccccccc" inkscapeConnectorCurvature="0" id="path3016" d="m 46.748784,541.69783 0,-27.12756 18.020446,0 0,6.00682 -10.657253,0 0,4.55355 10.269717,0 0,5.90993 -10.269717,0 0,4.65044 10.657253,0 0,6.00682 z"></path>
    </g>
  </symbol>
  <symbol xmlnsDc="http://purl.org/dc/elements/1.1/" xmlnsCc="http://creativecommons.org/ns#" xmlnsRdf="http://www.w3.org/1999/02/22-rdf-syntax-ns#" xmlnsSvg="http://www.w3.org/2000/svg" xmlns="http://www.w3.org/2000/svg" xmlnsSodipodi="http://sodipodi.sourceforge.net/DTD/sodipodi-0.dtd" xmlnsInkscape="http://www.inkscape.org/namespaces/inkscape" id="zte" version="1.1" inkscapeVersion="0.91 r13725" sodipodiDocname="ZTE_logo.svg" viewBox="0 0 399.99953 193.29952">
    <defs id="defs4"></defs>
    <sodipodi:namedview id="base" pagecolor="#ffffff" bordercolor="#666666" borderopacity="1.0" inkscapePageopacity="0.0" inkscapePageshadow="2" inkscapeZoom="0.175" inkscapeCx="924.96213" inkscapeCy="1013.2286" inkscapeDocumentUnits="px" inkscapeCurrentLayer="layer1" showgrid="false" fitMarginTop="0" fitMarginLeft="0" fitMarginRight="0" fitMarginBottom="0" inkscapeWindowWidth="1600" inkscapeWindowHeight="837" inkscapeWindowX="-8" inkscapeWindowY="-8" inkscapeWindowMaximized="1"></sodipodi:namedview>
    <metadata id="metadata7">
      <rdf:RDF>
        <cc:Work rdfAbout="">
          <dc:format>image/svg+xml</dc:format>
          <dc:type rdfResource="http://purl.org/dc/dcmitype/StillImage"></dc:type>
          <dc:title></dc:title>
        </cc:Work>
      </rdf:RDF>
    </metadata>
    <g inkscapeLabel="Ebene 1" inkscapeGroupmode="layer" id="layer1" transform="translate(1198.5336,-1795.3029)">
      <path d="m -1187.0303,1988.4104 c -4.1857,-0.543 -8.0074,-3.1921 -9.9568,-6.9017 -1.8771,-3.5722 -2.0572,-7.9181 -0.4756,-11.4751 0.2812,-0.6323 13.6608,-21.7944 29.7326,-47.0269 16.0717,-25.2326 35.1514,-55.1887 42.3993,-66.5692 7.2479,-11.3806 13.4021,-21.2434 13.6759,-21.9175 1.0131,-2.4939 0.7876,-5.5751 -0.5833,-7.9712 -0.734,-1.283 -2.5088,-3.0179 -3.7186,-3.6351 -2.1708,-1.1075 -0.8924,-1.0669 -33.6853,-1.0708 -33.9475,0 -31.9307,0.081 -35.1147,-1.4882 -5.5738,-2.7477 -8.5309,-9.4933 -6.7773,-15.4603 0.9809,-3.3376 3.7642,-6.6994 6.7702,-8.1773 3.1253,-1.5365 -1.6514,-1.4246 58.25,-1.3644 l 53.8831,0.054 1.3586,0.4647 c 4.0504,1.3856 7.3628,4.7377 8.6283,8.7316 0.3718,1.1736 0.4635,1.9593 0.4632,3.9712 -5e-4,2.7393 -0.4123,4.47 -1.517,6.3748 -0.3,0.5173 -19.5425,30.7556 -42.7611,67.1962 -23.2186,36.4406 -42.398,66.6675 -42.6208,67.1707 -0.5261,1.1884 -0.7067,3.8029 -0.3644,5.2738 0.6515,2.7989 2.5715,5.1706 5.2031,6.4274 l 1.5922,0.7604 34.5909,0.1079 c 38.6504,0.1207 35.3844,-0.016 38.6666,1.6151 2.0755,1.0312 4.4017,3.3271 5.4966,5.4249 3.2354,6.199 1.4029,13.5379 -4.3392,17.3785 -1.77,1.1839 -3.5133,1.8245 -5.7556,2.1151 -1.9326,0.2505 -111.1076,0.2418 -113.0409,-0.01 z m 285.72356,-0.087 c -1.70921,-0.3118 -4.16915,-1.3993 -5.54932,-2.4531 -1.41865,-1.0832 -3.01171,-3.0304 -3.8017,-4.6468 -1.47631,-3.0208 -1.3582,5.1429 -1.29899,-89.7867 l 0.0535,-85.788 0.57036,-1.5629 c 0.71076,-1.9475 2.15572,-4.0869 3.68972,-5.4629 1.40901,-1.264 4.44832,-2.7884 6.17649,-3.098 0.85054,-0.1523 15.40146,-0.2221 46.3142,-0.2221 44.20311,0 45.10521,0.01 46.68839,0.4129 2.44578,0.6255 3.95398,1.5195 5.98858,3.55 1.36932,1.3666 1.96627,2.1521 2.54762,3.3524 1.53797,3.1752 1.78625,6.8619 0.6834,10.1473 -0.702,2.0912 -1.36957,3.2079 -2.88821,4.8313 -1.58088,1.69 -3.36815,2.8571 -5.47529,3.5755 l -1.67207,0.5701 -31.03777,0.1066 c -29.39928,0.1009 -31.09844,0.1268 -32.18731,0.4904 -4.61466,1.541 -8.25569,5.3698 -9.29359,9.7728 -0.46669,1.9798 -0.46991,34.1174 -0.004,36.0953 1.12008,4.7511 4.98502,8.6262 9.84261,9.8686 1.55939,0.3988 2.42042,0.4123 26.60689,0.4158 27.92647,0 26.53934,-0.066 29.69096,1.4882 3.17881,1.567 5.75873,4.6766 6.8257,8.2271 0.60476,2.0123 0.51506,5.5965 -0.19355,7.7333 -1.28926,3.8878 -4.5832,7.1889 -8.50616,8.5245 l -1.35856,0.4626 -26.12606,0.1046 -26.12607,0.1046 -1.8012,0.6449 c -3.53092,1.2641 -6.19649,3.5674 -7.71977,6.6704 -1.50891,3.0739 -1.45198,2.2498 -1.45198,21.0159 0,15.9782 0.021,16.9343 0.40435,18.4333 1.21701,4.7585 4.75202,8.2796 9.73256,9.6945 1.15873,0.3291 3.4782,0.3522 30.51525,0.3031 20.89187,-0.038 29.79356,0.015 31.12246,0.1843 5.83217,0.7436 10.35058,4.87 11.50002,10.5023 0.41445,2.0309 0.41487,3.3196 0.002,5.3198 -0.98744,4.7806 -4.26895,8.4636 -8.95741,10.0534 l -1.68846,0.5725 -45.14584,0.035 c -36.81292,0.029 -45.4275,-0.016 -46.67184,-0.2431 z m -88.45218,-0.041 c -1.14474,-0.1914 -3.3112,-0.9873 -4.59819,-1.6893 -1.79258,-0.9779 -4.7057,-3.8883 -5.69589,-5.6907 -0.4105,-0.7472 -0.9663,-2.0169 -1.2352,-2.8216 l -0.4887,-1.463 -0.1085,-71.7945 c -0.099,-65.3543 -0.1387,-71.8912 -0.4464,-72.8732 -1.4898,-4.7545 -4.3824,-7.8289 -8.8525,-9.4085 l -1.6701,-0.5902 -14.2125,-0.1131 c -13.002,-0.1036 -14.3105,-0.1456 -15.3622,-0.4938 -4.715,-1.561 -8.171,-5.2682 -9.2026,-9.8713 -0.3231,-1.4419 -0.2649,-4.7864 0.1088,-6.2424 1.0741,-4.186 4.2034,-7.5953 8.4668,-9.2244 l 1.5676,-0.599 53.61066,-0.06 c 37.82095,-0.042 54.01081,0.01 54.96924,0.1672 1.82948,0.3053 4.82051,1.7855 6.31275,3.1239 1.56815,1.4065 3.09951,3.7296 3.73229,5.6618 0.43967,1.3426 0.50935,1.9458 0.50599,4.3787 -0.003,2.4149 -0.0738,3.0174 -0.48865,4.1802 -1.39826,3.9187 -4.61748,7.0678 -8.59932,8.412 -1.33044,0.4491 -1.65267,0.4611 -15.57113,0.5779 -15.81764,0.1328 -14.94186,0.053 -17.95961,1.6305 -2.99448,1.5652 -5.43257,4.54 -6.6268,8.0858 -0.23311,0.6921 -0.30001,13.1986 -0.38857,72.6305 -0.10153,68.1469 -0.12595,71.8581 -0.48034,73.0485 -1.62419,5.4554 -5.6152,9.4626 -10.72605,10.7698 -1.5239,0.3897 -4.98648,0.5311 -6.56088,0.2678 z" id="path3722" inkscapeConnectorCurvature="0"></path>
    </g>
  </symbol>

</defs>
</svg>
